<svg xmlns="http://www.w3.org/2000/svg" width="100%" height="100%" viewBox="0 0 24 24" fill="var(--token-67b490dc-d3b7-4020-8dab-9b587b280140, rgb(159, 170, 193))" class="icon icon-tabler icons-tabler-filled icon-tabler-quote">   <path stroke="none" d="M0 0h24v24H0z" fill="none"></path>   <path d="M9 5a2 2 0 0 1 2 2v6c0 3.13 -1.65 5.193 -4.757 5.97a1 1 0 1 1 -.486 -1.94c2.227 -.557 3.243 -1.827 3.243 -4.03v-1h-3a2 2 0 0 1 -1.995 -1.85l-.005 -.15v-3a2 2 0 0 1 2 -2z"></path>   <path d="M18 5a2 2 0 0 1 2 2v6c0 3.13 -1.65 5.193 -4.757 5.97a1 1 0 1 1 -.486 -1.94c2.227 -.557 3.243 -1.827 3.243 -4.03v-1h-3a2 2 0 0 1 -1.995 -1.85l-.005 -.15v-3a2 2 0 0 1 2 -2z"></path> </svg>