<svg xmlns="http://www.w3.org/2000/svg" xmlns:xlink="http://www.w3.org/1999/xlink" viewBox="0 0 23 23"><path d="M 15.529 2.998 C 15.471 2.02 16.782 1.644 17.251 2.505 L 17.275 2.549 L 17.322 2.634 C 17.896 3.676 19.038 4.274 20.222 4.152 C 21.23 4.049 21.617 5.429 20.704 5.865 C 19.624 6.381 18.96 7.495 19.02 8.691 L 19.026 8.819 C 19.074 9.798 17.761 10.16 17.299 9.296 L 17.249 9.199 C 16.685 8.142 15.537 7.53 14.345 7.651 C 13.338 7.753 12.951 6.378 13.864 5.941 C 14.94 5.425 15.6 4.311 15.536 3.119 L 15.532 3.039 Z M 6.187 8.778 C 6.09 7.125 8.307 6.49 9.099 7.946 L 9.139 8.02 L 9.219 8.164 C 10.191 9.925 12.12 10.934 14.121 10.729 C 15.824 10.555 16.479 12.887 14.935 13.625 C 13.109 14.497 11.986 16.381 12.088 18.402 L 12.098 18.617 C 12.18 20.273 9.96 20.885 9.179 19.424 L 9.095 19.26 C 8.14 17.473 6.201 16.439 4.185 16.644 C 2.484 16.817 1.83 14.492 3.372 13.752 C 5.191 12.879 6.307 10.998 6.2 8.983 L 6.193 8.848 Z" fill="rgb(0,0,0)"></path></svg>